<svg width="100" height="100" viewBox="0 0 100 100" fill="none" xmlns="http://www.w3.org/2000/svg">
<path d="M80.0002 13.3334H20.0002C16.3168 13.3334 13.3335 16.3167 13.3335 20V80C13.3335 83.6834 16.3168 86.6667 20.0002 86.6667H80.0002C83.6835 86.6667 86.6668 83.6834 86.6668 80V20C86.6668 16.3167 83.6835 13.3334 80.0002 13.3334ZM36.5135 73.3334H26.6802V41.6934H36.5135V73.3334ZM31.4968 37.17C28.3268 37.17 25.7635 34.6 25.7635 31.4367C25.7635 28.2734 28.3302 25.7067 31.4968 25.7067C34.6568 25.7067 37.2268 28.2767 37.2268 31.4367C37.2268 34.6 34.6568 37.17 31.4968 37.17ZM73.3468 73.3334H63.5202V57.9467C63.5202 54.2767 63.4535 49.5567 58.4102 49.5567C53.2935 49.5567 52.5068 53.5534 52.5068 57.68V73.3334H42.6802V41.6934H52.1135V46.0167H52.2468C53.5602 43.53 56.7668 40.9067 61.5502 40.9067C71.5068 40.9067 73.3468 47.46 73.3468 55.98V73.3334Z" fill="#C7BD68"/>
</svg>
